<svg xmlns="http://www.w3.org/2000/svg" style="display:block;background:0 0" viewBox="0 0 280 150"><style>@keyframes colorCycle{0%{fill:#f2994a}50%{fill:#7928ca}to{fill:#eb5757}}.shape{animation:colorCycle 3s infinite linear}</style><path fill="#FF0080" d="M47.68 13.12L47.68-0L73.92-0L73.92 13.12L69.92 13.12L69.92 62.24L47.44 62.24L24 26.16L24 49.12L27.84 49.12L27.84 62.24L1.60 62.24L1.60 49.12L5.60 49.12L5.60 13.12L1.60 13.12L1.60-0L30.48-0L51.52 32.08L51.52 13.12L47.68 13.12" class="shape" style="animation-delay:0s" transform="translate(55 45)"/><path fill="#F2C94C" d="M137.28 30.32L137.28 42.24L133.28 42.24L133.28 58.24Q129.76 60.24 123 61.80Q116.24 63.36 108.40 63.36L108.40 63.36Q93.44 63.36 84.96 55.48Q76.48 47.60 76.48 31.12L76.48 31.12Q76.48 14.24 84.92 6.56Q93.36-1.12 109.04-1.12L109.04-1.12Q116.64-1.12 123.28 0.48Q129.92 2.08 133.28 4.08L133.28 4.08L133.28 23.20L113.28 23.20L113.28 19.44Q113.28 16.08 111.88 14.60Q110.48 13.12 107.44 13.12L107.44 13.12Q104.40 13.12 103 14.60Q101.60 16.08 101.60 19.44L101.60 19.44L101.60 42.80Q101.60 46.16 103 47.64Q104.40 49.12 107.44 49.12L107.44 49.12Q110.48 49.12 111.88 47.64Q113.28 46.16 113.28 42.80L113.28 42.80L113.28 42.24L108.96 42.24L108.96 30.32L137.28 30.32" class="shape" style="animation-delay:.5s" transform="translate(55 45)"/><path fill="#4CC9F0" d="M199.84 30.32L199.84 42.24L195.84 42.24L195.84 58.24Q192.32 60.24 185.56 61.80Q178.80 63.36 170.96 63.36L170.96 63.36Q156 63.36 147.52 55.48Q139.04 47.60 139.04 31.12L139.04 31.12Q139.04 14.24 147.48 6.56Q155.92-1.12 171.60-1.12L171.60-1.12Q179.20-1.12 185.84 0.48Q192.48 2.08 195.84 4.08L195.84 4.08L195.84 23.20L175.84 23.20L175.84 19.44Q175.84 16.08 174.44 14.60Q173.04 13.12 170 13.12L170 13.12Q166.96 13.12 165.56 14.60Q164.16 16.08 164.16 19.44L164.16 19.44L164.16 42.80Q164.16 46.16 165.56 47.64Q166.96 49.12 170 49.12L170 49.12Q173.04 49.12 174.44 47.64Q175.84 46.16 175.84 42.80L175.84 42.80L175.84 42.24L171.52 42.24L171.52 30.32L199.84 30.32" class="shape" style="animation-delay:1s" transform="translate(55 45)"/></svg>